<svg width="30" height="30" viewBox="0 0 30 30" fill="none" xmlns="http://www.w3.org/2000/svg">
<path d="M15 2.5C11.5593 2.5 8.75 5.30933 8.75 8.75C8.75 12.1907 11.5593 15 15 15C18.4407 15 21.25 12.1907 21.25 8.75C21.25 5.30933 18.4407 2.5 15 2.5ZM15 4.375C17.4274 4.375 19.375 6.32265 19.375 8.75C19.375 11.1774 17.4274 13.125 15 13.125C12.5726 13.125 10.625 11.1774 10.625 8.75C10.625 6.32265 12.5726 4.375 15 4.375ZM7.48657 17.5C6.12419 17.5 5 18.6242 5 19.9866V20.9375C5 23.1901 6.42454 24.9326 8.31665 25.9766C10.2088 27.0205 12.6051 27.5 15 27.5C17.3949 27.5 19.7912 27.0205 21.6833 25.9766C23.2966 25.0865 24.5108 23.6641 24.8511 21.875H25.0012V19.9866C25.0012 18.6242 23.8758 17.5 22.5134 17.5H7.48657ZM7.48657 19.375H22.5134C22.8623 19.375 23.1262 19.6377 23.1262 19.9866V20H23.125V20.9375C23.125 22.4349 22.2839 23.5049 20.7776 24.3359C19.2713 25.167 17.1363 25.625 15 25.625C12.8637 25.625 10.7287 25.167 9.22241 24.3359C7.71608 23.5049 6.875 22.4349 6.875 20.9375V19.9866C6.875 19.6377 7.1377 19.375 7.48657 19.375Z" fill="#262018"/>
</svg>
