<svg width="22" height="24" viewBox="0 0 22 24" fill="none" xmlns="http://www.w3.org/2000/svg">
<path d="M4.8125 0.125C3.27031 0.125 2 1.39531 2 2.9375V17.625H1.0625C0.813867 17.625 0.575425 17.7238 0.399615 17.8996C0.223805 18.0754 0.125025 18.3139 0.125 18.5625V19.8125C0.125 22.045 1.95504 23.875 4.1875 23.875H17.9375C20.17 23.875 22 22.045 22 19.8125V2.9375C22 1.39531 20.7297 0.125 19.1875 0.125H4.8125ZM4.8125 2H19.1875C19.7166 2 20.125 2.40844 20.125 2.9375V19.8125C20.125 21.0313 19.1563 22 17.9375 22C16.7187 22 15.75 21.0313 15.75 19.8125V18.5625C15.75 18.3139 15.6512 18.0754 15.4754 17.8996C15.2996 17.7238 15.0611 17.625 14.8125 17.625H3.875V2.9375C3.875 2.40844 4.28344 2 4.8125 2ZM7.3125 5.125C7.06386 5.125 6.8254 5.22377 6.64959 5.39959C6.47377 5.5754 6.375 5.81386 6.375 6.0625C6.375 6.31114 6.47377 6.5496 6.64959 6.72541C6.8254 6.90123 7.06386 7 7.3125 7C7.56114 7 7.7996 6.90123 7.97541 6.72541C8.15123 6.5496 8.25 6.31114 8.25 6.0625C8.25 5.81386 8.15123 5.5754 7.97541 5.39959C7.7996 5.22377 7.56114 5.125 7.3125 5.125ZM10.4375 5.125C10.3133 5.12324 10.1899 5.14619 10.0746 5.19252C9.95936 5.23884 9.85444 5.30762 9.76597 5.39485C9.6775 5.48208 9.60724 5.58602 9.55929 5.70064C9.51134 5.81525 9.48665 5.93826 9.48665 6.0625C9.48665 6.18674 9.51134 6.30975 9.55929 6.42436C9.60724 6.53898 9.6775 6.64292 9.76597 6.73015C9.85444 6.81738 9.95936 6.88616 10.0746 6.93248C10.1899 6.97881 10.3133 7.00176 10.4375 7H16.6875C16.8117 7.00176 16.9351 6.97881 17.0504 6.93248C17.1656 6.88616 17.2706 6.81738 17.359 6.73015C17.4475 6.64292 17.5178 6.53898 17.5657 6.42436C17.6137 6.30975 17.6384 6.18674 17.6384 6.0625C17.6384 5.93826 17.6137 5.81525 17.5657 5.70064C17.5178 5.58602 17.4475 5.48208 17.359 5.39485C17.2706 5.30762 17.1656 5.23884 17.0504 5.19252C16.9351 5.14619 16.8117 5.12324 16.6875 5.125H10.4375ZM7.3125 8.875C7.06386 8.875 6.8254 8.97377 6.64959 9.14959C6.47377 9.3254 6.375 9.56386 6.375 9.8125C6.375 10.0611 6.47377 10.2996 6.64959 10.4754C6.8254 10.6512 7.06386 10.75 7.3125 10.75C7.56114 10.75 7.7996 10.6512 7.97541 10.4754C8.15123 10.2996 8.25 10.0611 8.25 9.8125C8.25 9.56386 8.15123 9.3254 7.97541 9.14959C7.7996 8.97377 7.56114 8.875 7.3125 8.875ZM10.4375 8.875C10.3133 8.87324 10.1899 8.89619 10.0746 8.94252C9.95936 8.98885 9.85444 9.05762 9.76597 9.14485C9.6775 9.23208 9.60724 9.33602 9.55929 9.45064C9.51134 9.56525 9.48665 9.68826 9.48665 9.8125C9.48665 9.93674 9.51134 10.0597 9.55929 10.1744C9.60724 10.289 9.6775 10.3929 9.76597 10.4801C9.85444 10.5674 9.95936 10.6362 10.0746 10.6825C10.1899 10.7288 10.3133 10.7518 10.4375 10.75H16.6875C16.8117 10.7518 16.9351 10.7288 17.0504 10.6825C17.1656 10.6362 17.2706 10.5674 17.359 10.4801C17.4475 10.3929 17.5178 10.289 17.5657 10.1744C17.6137 10.0597 17.6384 9.93674 17.6384 9.8125C17.6384 9.68826 17.6137 9.56525 17.5657 9.45064C17.5178 9.33602 17.4475 9.23208 17.359 9.14485C17.2706 9.05762 17.1656 8.98885 17.0504 8.94252C16.9351 8.89619 16.8117 8.87324 16.6875 8.875H10.4375ZM7.3125 12.625C7.06386 12.625 6.8254 12.7238 6.64959 12.8996C6.47377 13.0754 6.375 13.3139 6.375 13.5625C6.375 13.8111 6.47377 14.0496 6.64959 14.2254C6.8254 14.4012 7.06386 14.5 7.3125 14.5C7.56114 14.5 7.7996 14.4012 7.97541 14.2254C8.15123 14.0496 8.25 13.8111 8.25 13.5625C8.25 13.3139 8.15123 13.0754 7.97541 12.8996C7.7996 12.7238 7.56114 12.625 7.3125 12.625ZM10.4375 12.625C10.3133 12.6232 10.1899 12.6462 10.0746 12.6925C9.95936 12.7388 9.85444 12.8076 9.76597 12.8949C9.6775 12.9821 9.60724 13.086 9.55929 13.2006C9.51134 13.3153 9.48665 13.4383 9.48665 13.5625C9.48665 13.6867 9.51134 13.8097 9.55929 13.9244C9.60724 14.039 9.6775 14.1429 9.76597 14.2301C9.85444 14.3174 9.95936 14.3862 10.0746 14.4325C10.1899 14.4788 10.3133 14.5018 10.4375 14.5H16.6875C16.8117 14.5018 16.9351 14.4788 17.0504 14.4325C17.1656 14.3862 17.2706 14.3174 17.359 14.2301C17.4475 14.1429 17.5178 14.039 17.5657 13.9244C17.6137 13.8097 17.6384 13.6867 17.6384 13.5625C17.6384 13.4383 17.6137 13.3153 17.5657 13.2006C17.5178 13.086 17.4475 12.9821 17.359 12.8949C17.2706 12.8076 17.1656 12.7388 17.0504 12.6925C16.9351 12.6462 16.8117 12.6232 16.6875 12.625H10.4375ZM2 19.5H13.875V19.8125C13.875 20.6344 14.1838 21.3584 14.6086 22H4.1875C2.96871 22 2 21.0313 2 19.8125V19.5Z" fill="#999793"/>
</svg>
