<svg width="30" height="30" viewBox="0 0 30 30" fill="none" xmlns="http://www.w3.org/2000/svg">
<path d="M9.375 4.375C5.58903 4.375 2.5 7.46403 2.5 11.25C2.5 13.8101 4.42978 16.2206 6.78223 18.6926C9.13468 21.1647 12.0302 23.6684 14.3372 25.9753C14.513 26.1511 14.7514 26.2498 15 26.2498C15.2486 26.2498 15.487 26.1511 15.6628 25.9753C17.9698 23.6684 20.8653 21.1647 23.2178 18.6926C25.5702 16.2206 27.5 13.8101 27.5 11.25C27.5 7.46403 24.411 4.375 20.625 4.375C18.4522 4.375 16.5605 5.54156 15 7.52319C13.4395 5.54156 11.5478 4.375 9.375 4.375ZM9.375 6.25C11.2054 6.25 12.7289 7.224 14.2078 9.56299C14.2923 9.69659 14.4093 9.80664 14.5478 9.8829C14.6863 9.95915 14.8419 9.99914 15 9.99914C15.1581 9.99914 15.3137 9.95915 15.4522 9.8829C15.5907 9.80664 15.7077 9.69659 15.7922 9.56299C17.2711 7.224 18.7946 6.25 20.625 6.25C23.3978 6.25 25.625 8.47722 25.625 11.25C25.625 12.7524 24.1173 15.0294 21.8604 17.4011C19.8022 19.5639 17.2439 21.8234 15 24.0112C12.7561 21.8234 10.1978 19.5639 8.13965 17.4011C5.88272 15.0294 4.375 12.7524 4.375 11.25C4.375 8.47722 6.60222 6.25 9.375 6.25Z" fill="#262018"/>
</svg>
