<svg width="34" height="34" viewBox="0 0 34 34" fill="none" xmlns="http://www.w3.org/2000/svg">
<path d="M16.9987 0.46582C21.527 0.46582 22.092 0.482487 23.8687 0.56582C25.6437 0.649154 26.852 0.927487 27.9154 1.34082C29.0154 1.76415 29.942 2.33749 30.8687 3.26249C31.7162 4.09565 32.372 5.10347 32.7904 6.21582C33.202 7.27749 33.482 8.48749 33.5654 10.2625C33.6437 12.0392 33.6654 12.6042 33.6654 17.1325C33.6654 21.6608 33.6487 22.2258 33.5654 24.0025C33.482 25.7775 33.202 26.9858 32.7904 28.0492C32.3732 29.1621 31.7172 30.1702 30.8687 31.0025C30.0353 31.8497 29.0275 32.5054 27.9154 32.9242C26.8537 33.3358 25.6437 33.6158 23.8687 33.6992C22.092 33.7775 21.527 33.7992 16.9987 33.7992C12.4704 33.7992 11.9054 33.7825 10.1287 33.6992C8.3537 33.6158 7.14536 33.3358 6.08203 32.9242C4.96924 32.5066 3.96124 31.8507 3.1287 31.0025C2.28104 30.1695 1.62525 29.1616 1.20703 28.0492C0.793698 26.9875 0.515364 25.7775 0.432031 24.0025C0.353698 22.2258 0.332031 21.6608 0.332031 17.1325C0.332031 12.6042 0.348698 12.0392 0.432031 10.2625C0.515364 8.48582 0.793698 7.27915 1.20703 6.21582C1.62409 5.10279 2.28004 4.09469 3.1287 3.26249C3.96148 2.41454 4.96941 1.7587 6.08203 1.34082C7.14536 0.927487 8.35203 0.649154 10.1287 0.56582C11.9054 0.487487 12.4704 0.46582 16.9987 0.46582ZM16.9987 8.79915C14.7886 8.79915 12.6689 9.67713 11.1061 11.2399C9.54334 12.8027 8.66537 14.9223 8.66537 17.1325C8.66537 19.3426 9.54334 21.4622 11.1061 23.025C12.6689 24.5878 14.7886 25.4658 16.9987 25.4658C19.2088 25.4658 21.3285 24.5878 22.8913 23.025C24.4541 21.4622 25.332 19.3426 25.332 17.1325C25.332 14.9223 24.4541 12.8027 22.8913 11.2399C21.3285 9.67713 19.2088 8.79915 16.9987 8.79915ZM27.832 8.38249C27.832 7.82995 27.6125 7.30005 27.2218 6.90935C26.8311 6.51865 26.3012 6.29915 25.7487 6.29915C25.1962 6.29915 24.6663 6.51865 24.2756 6.90935C23.8849 7.30005 23.6654 7.82995 23.6654 8.38249C23.6654 8.93502 23.8849 9.46493 24.2756 9.85563C24.6663 10.2463 25.1962 10.4658 25.7487 10.4658C26.3012 10.4658 26.8311 10.2463 27.2218 9.85563C27.6125 9.46493 27.832 8.93502 27.832 8.38249ZM16.9987 12.1325C18.3248 12.1325 19.5966 12.6593 20.5342 13.597C21.4719 14.5346 21.9987 15.8064 21.9987 17.1325C21.9987 18.4586 21.4719 19.7303 20.5342 20.668C19.5966 21.6057 18.3248 22.1325 16.9987 22.1325C15.6726 22.1325 14.4008 21.6057 13.4632 20.668C12.5255 19.7303 11.9987 18.4586 11.9987 17.1325C11.9987 15.8064 12.5255 14.5346 13.4632 13.597C14.4008 12.6593 15.6726 12.1325 16.9987 12.1325Z" fill="#262018"/>
</svg>
