<svg width="48" height="48" viewBox="0 0 48 48" fill="none" xmlns="http://www.w3.org/2000/svg">
<path d="M28.2214 23.0723L26.5134 24.7803L40.6554 38.9223L37.8274 41.7503L23.6854 27.6103L9.54345 41.7503L6.71545 38.9223L25.3934 20.2443C24.2174 17.3303 25.4334 13.1343 28.6334 9.93028C32.5394 6.02628 37.9214 5.07628 40.6554 7.81028C43.3895 10.5443 42.4394 15.9263 38.5354 19.8303C35.3314 23.0343 31.1354 24.2503 28.2214 23.0723ZM8.12945 6.39628L21.5634 19.8303L15.9074 25.4883L8.12745 17.7083C6.62768 16.2081 5.78516 14.1736 5.78516 12.0523C5.78516 9.93096 6.62768 7.8965 8.12745 6.39628H8.12945ZM35.7054 17.0003C38.2214 14.4863 38.7394 11.5483 37.8274 10.6363C36.9154 9.72428 33.9774 10.2423 31.4634 12.7563C28.9494 15.2723 28.4314 18.2103 29.3434 19.1223C30.2534 20.0323 33.1914 19.5143 35.7054 17.0003Z" fill="#262018"/>
</svg>
