<svg width="49" height="48" viewBox="0 0 49 48" fill="none" xmlns="http://www.w3.org/2000/svg">
<path d="M26.5 40V44H22.5V40H6.5C5.96957 40 5.46086 39.7893 5.08579 39.4142C4.71071 39.0391 4.5 38.5304 4.5 38V6.00001C4.5 5.46957 4.71071 4.96086 5.08579 4.58579C5.46086 4.21072 5.96957 4.00001 6.5 4.00001H18.5C19.6352 3.99866 20.7576 4.23952 21.7922 4.7065C22.8269 5.17348 23.75 5.85584 24.5 6.70801C25.25 5.85584 26.1731 5.17348 27.2078 4.7065C28.2424 4.23952 29.3648 3.99866 30.5 4.00001H42.5C43.0304 4.00001 43.5391 4.21072 43.9142 4.58579C44.2893 4.96086 44.5 5.46957 44.5 6.00001V38C44.5 38.5304 44.2893 39.0391 43.9142 39.4142C43.5391 39.7893 43.0304 40 42.5 40H26.5ZM40.5 36V8.00001H30.5C29.4391 8.00001 28.4217 8.42143 27.6716 9.17158C26.9214 9.92172 26.5 10.9391 26.5 12V36H40.5ZM22.5 36V12C22.5 10.9391 22.0786 9.92172 21.3284 9.17158C20.5783 8.42143 19.5609 8.00001 18.5 8.00001H8.5V36H22.5Z" fill="#262018"/>
</svg>
