<svg width="25" height="24" viewBox="0 0 25 24" fill="none" xmlns="http://www.w3.org/2000/svg">
<path d="M6.73521 6.24152C6.54043 6.2472 6.3555 6.32845 6.21958 6.46808L1.21958 11.4681C1.07898 11.6087 1 11.7995 1 11.9984C1 12.1972 1.07898 12.388 1.21958 12.5286L6.21958 17.5286C6.28869 17.6006 6.37147 17.6581 6.46306 17.6977C6.55466 17.7372 6.65323 17.7582 6.75301 17.7592C6.85279 17.7602 6.95177 17.7413 7.04415 17.7036C7.13654 17.6659 7.22046 17.6101 7.29102 17.5395C7.36158 17.469 7.41735 17.385 7.45507 17.2927C7.49278 17.2003 7.51169 17.1013 7.51067 17.0015C7.50966 16.9017 7.48875 16.8032 7.44916 16.7116C7.40957 16.62 7.35211 16.5372 7.28013 16.4681L3.5604 12.7484H22.2499C22.3492 12.7498 22.4479 12.7314 22.5401 12.6943C22.6324 12.6573 22.7163 12.6023 22.7871 12.5325C22.8579 12.4627 22.9141 12.3795 22.9524 12.2878C22.9908 12.1962 23.0105 12.0978 23.0105 11.9984C23.0105 11.899 22.9908 11.8006 22.9524 11.7089C22.9141 11.6172 22.8579 11.534 22.7871 11.4642C22.7163 11.3945 22.6324 11.3394 22.5401 11.3024C22.4479 11.2653 22.3492 11.247 22.2499 11.2484H3.5604L7.28013 7.52863C7.38833 7.42325 7.4622 7.28767 7.49206 7.13961C7.52193 6.99156 7.50641 6.83794 7.44752 6.69886C7.38864 6.55977 7.28914 6.4417 7.16204 6.3601C7.03495 6.2785 6.88618 6.23717 6.73521 6.24152Z" fill="#262018"/>
</svg>
