<svg width="33" height="31" viewBox="0 0 33 31" fill="none" xmlns="http://www.w3.org/2000/svg">
<path d="M7.56511 3.46586C7.56466 4.34991 7.21305 5.19759 6.58762 5.82239C5.96218 6.4472 5.11416 6.79797 4.2301 6.79753C3.34605 6.79708 2.49838 6.44547 1.87357 5.82004C1.24876 5.1946 0.897996 4.34658 0.898438 3.46253C0.89888 2.57847 1.25049 1.7308 1.87593 1.10599C2.50136 0.481183 3.34938 0.130418 4.23344 0.13086C5.11749 0.131302 5.96516 0.482915 6.58997 1.10835C7.21478 1.73378 7.56555 2.5818 7.56511 3.46586ZM7.66511 9.26586H0.998438V30.1325H7.66511V9.26586ZM18.1984 9.26586H11.5651V30.1325H18.1318V19.1825C18.1318 13.0825 26.0818 12.5159 26.0818 19.1825V30.1325H32.6651V16.9159C32.6651 6.63253 20.8984 7.01586 18.1318 12.0659L18.1984 9.26586Z" fill="#262018"/>
</svg>
