<svg width="30" height="30" viewBox="0 0 30 30" fill="none" xmlns="http://www.w3.org/2000/svg">
<path d="M17.1249 15.1178L18.5 16.5M17.1249 15.1178C17.6657 14.5752 18 13.8266 18 13C18 11.3431 16.6569 10 15 10C13.3431 10 12 11.3431 12 13C12 14.6569 13.3431 16 15 16C15.8302 16 16.5817 15.6628 17.1249 15.1178Z" stroke="#262018" stroke-width="2" stroke-linecap="round"/>
<path d="M8 18.2161C7.35254 16.5622 7 14.8013 7 13.1433C7 8.64588 10.5817 5 15 5C19.4183 5 23 8.64588 23 13.1433C23 17.6055 20.4467 22.8124 16.4629 24.6744C15.5343 25.1085 14.4657 25.1085 13.5371 24.6744C12.2647 24.0797 11.1383 23.1439 10.1944 22" stroke="#262018" stroke-width="2" stroke-linecap="round"/>
</svg>
