<svg width="41" height="46" viewBox="0 0 41 46" fill="none" xmlns="http://www.w3.org/2000/svg">
<path d="M16.45 16.67C17.4289 15.691 18.0955 14.4437 18.3656 13.0859C18.6356 11.728 18.4969 10.3206 17.9671 9.04154C17.4373 7.7625 16.5401 6.66929 15.3889 5.90015C14.2378 5.13101 12.8844 4.72049 11.5 4.72049C10.1156 4.72049 8.76222 5.13101 7.61109 5.90015C6.45996 6.66929 5.56275 7.7625 5.03292 9.04154C4.50308 10.3206 4.36442 11.728 4.63446 13.0859C4.90449 14.4437 5.57111 15.691 6.55001 16.67L11.5 21.62L16.45 16.67ZM11.5 27.276L3.72 19.5C2.18214 17.9614 1.13501 16.0014 0.710989 13.8677C0.28697 11.7341 0.505108 9.52261 1.33782 7.51292C2.17054 5.50324 3.58044 3.78558 5.38927 2.57711C7.1981 1.36864 9.32463 0.723633 11.5 0.723633C13.6754 0.723633 15.8019 1.36864 17.6107 2.57711C19.4196 3.78558 20.8295 5.50324 21.6622 7.51292C22.4949 9.52261 22.713 11.7341 22.289 13.8677C21.865 16.0014 20.8179 17.9614 19.28 19.5L11.5 27.28V27.276ZM11.5 14.72C10.7044 14.72 9.94129 14.4039 9.37868 13.8413C8.81608 13.2787 8.5 12.5156 8.5 11.72C8.5 10.9243 8.81608 10.1613 9.37868 9.59866C9.94129 9.03605 10.7044 8.71998 11.5 8.71998C12.2957 8.71998 13.0587 9.03605 13.6213 9.59866C14.1839 10.1613 14.5 10.9243 14.5 11.72C14.5 12.5156 14.1839 13.2787 13.6213 13.8413C13.0587 14.4039 12.2957 14.72 11.5 14.72ZM29.5 39.62L34.45 34.67C35.4289 33.691 36.0955 32.4437 36.3656 31.0859C36.6356 29.728 36.4969 28.3206 35.9671 27.0415C35.4373 25.7625 34.54 24.6693 33.3889 23.9002C32.2378 23.131 30.8844 22.7205 29.5 22.7205C28.1156 22.7205 26.7622 23.131 25.6111 23.9002C24.46 24.6693 23.5628 25.7625 23.0329 27.0415C22.5031 28.3206 22.3644 29.728 22.6345 31.0859C22.9045 32.4437 23.5711 33.691 24.55 34.67L29.5 39.62ZM37.28 37.5L29.5 45.276L21.72 37.498C20.1821 35.9594 19.135 33.9994 18.711 31.8657C18.287 29.7321 18.5051 27.5206 19.3378 25.5109C20.1705 23.5012 21.5804 21.7836 23.3893 20.5751C25.1981 19.3666 27.3246 18.7216 29.5 18.7216C31.6754 18.7216 33.8019 19.3666 35.6107 20.5751C37.4196 21.7836 38.8295 23.5012 39.6622 25.5109C40.4949 27.5206 40.713 29.7321 40.289 31.8657C39.865 33.9994 38.8179 35.9594 37.28 37.498V37.5ZM29.5 32.72C28.7044 32.72 27.9413 32.4039 27.3787 31.8413C26.8161 31.2787 26.5 30.5156 26.5 29.72C26.5 28.9243 26.8161 28.1613 27.3787 27.5987C27.9413 27.0361 28.7044 26.72 29.5 26.72C30.2957 26.72 31.0587 27.0361 31.6213 27.5987C32.1839 28.1613 32.5 28.9243 32.5 29.72C32.5 30.5156 32.1839 31.2787 31.6213 31.8413C31.0587 32.4039 30.2957 32.72 29.5 32.72Z" fill="#262018"/>
</svg>
