<svg width="120" height="24" viewBox="0 0 120 24" fill="none" xmlns="http://www.w3.org/2000/svg">
<path fill-rule="evenodd" clip-rule="evenodd" d="M57.4418 11.1307C58.1379 10.6325 58.7631 10.107 59.4632 9.70152C60.6214 9.03027 61.9007 8.89006 63.2252 9.13208C64.3241 9.33293 65.0123 9.97057 65.3432 10.9854C65.3678 11.0609 65.3917 11.1365 65.418 11.2117C65.4222 11.2231 65.4361 11.2312 65.4647 11.2605C66.1758 10.4849 67.0127 9.86851 68.0031 9.46126C69.1603 8.9848 70.353 8.89234 71.5721 9.20408C72.7485 9.50497 73.5165 10.5122 73.557 11.9454C73.6111 13.849 73.5948 15.7543 73.6127 17.6589C73.6176 18.2048 73.6271 18.7513 73.6513 19.2965C73.6775 19.8886 73.9577 20.2307 74.5548 20.3906C74.8591 20.472 75.1737 20.5278 75.4878 20.5657C75.7834 20.6018 75.8307 20.7653 75.8275 21.0098C75.8241 21.2781 75.6613 21.3051 75.4452 21.3051C73.5483 21.3029 71.6512 21.3029 69.7545 21.3054C69.5382 21.3059 69.3717 21.2728 69.3565 21.0164C69.3415 20.768 69.4237 20.6225 69.7007 20.5649C70.8605 20.3249 71.0743 20.0746 71.0774 18.9448C71.0819 17.12 71.0835 15.2948 71.0672 13.4698C71.0635 13.0605 71.0241 12.6421 70.9275 12.2448C70.6295 11.017 69.9838 10.587 68.6803 10.7338C67.4646 10.8707 66.5316 11.5291 65.6835 12.316C65.6029 12.3905 65.5874 12.557 65.5874 12.6808C65.5832 14.6789 65.58 16.6774 65.5903 18.6755C65.5968 19.9288 66.0324 20.3828 67.3369 20.5639C67.4898 20.5851 67.6857 20.6314 67.7699 20.7352C67.9727 20.984 67.7831 21.3006 67.4428 21.3016C65.4487 21.3061 63.4549 21.3026 61.4611 21.3049C61.2337 21.3051 61.0948 21.2475 61.0922 20.9916C61.0901 20.7569 61.155 20.6059 61.4178 20.571C62.9639 20.3641 63.0789 19.9068 63.0815 18.5947C63.0852 16.6906 63.049 14.7862 63.0159 12.8821C63.0109 12.6065 62.9513 12.3264 62.8791 12.0578C62.5937 10.9965 61.7831 10.5493 60.5487 10.7413C59.4267 10.9162 58.5231 11.4907 57.6821 12.1783C57.6093 12.2379 57.551 12.3579 57.551 12.4501C57.5529 14.688 57.534 16.9263 57.5867 19.1631C57.6093 20.118 57.9893 20.3939 59.0924 20.5685C59.2447 20.5927 59.4555 20.689 59.5073 20.8059C59.6464 21.1215 59.4892 21.3019 59.1152 21.3026C57.149 21.3059 55.1828 21.3029 53.2166 21.3056C52.9832 21.3059 52.8101 21.2698 52.8012 20.9888C52.793 20.7238 52.9065 20.5917 53.1783 20.5672C53.3287 20.5538 53.4794 20.5303 53.6267 20.4982C54.801 20.2418 55.0329 19.9733 55.0376 18.8048C55.0457 16.9131 55.0205 15.0212 55.0502 13.13C55.0631 12.2978 54.7553 11.6877 54.0007 11.285C53.7349 11.1433 53.4794 10.9813 53.2048 10.8583C52.9727 10.7545 52.8802 10.5802 52.9577 10.3803C53.0063 10.2548 53.1688 10.1247 53.3077 10.0843C54.4828 9.7432 55.6646 9.42387 56.8436 9.09419C57.3646 8.94867 57.5442 9.06867 57.5274 9.59061C57.5109 10.1067 57.4709 10.6221 57.4418 11.1307Z" fill="#262018"/>
<path fill-rule="evenodd" clip-rule="evenodd" d="M102.528 15.7715C102.519 15.7715 102.511 15.7715 102.502 15.7712C102.502 14.9196 102.532 14.0667 102.496 13.2164C102.435 11.762 101.376 10.5531 99.9118 10.2101C98.3915 9.85385 96.9972 10.4341 96.2105 11.7572C95.4555 13.0272 95.3424 14.403 95.5446 15.8137C95.6814 16.7661 95.9358 17.6925 96.5484 18.4827C97.9892 20.3411 100.674 20.238 102.373 18.7523C102.475 18.6636 102.519 18.4716 102.521 18.3271C102.534 17.4752 102.528 16.6234 102.528 15.7715ZM102.528 9.62472C102.528 9.0136 102.529 8.43128 102.527 7.84922C102.525 7.30303 102.504 6.75659 102.52 6.21116C102.538 5.56846 102.213 5.12004 101.691 4.78227C101.382 4.58244 101.056 4.40307 100.723 4.24392C100.489 4.1325 100.351 3.97183 100.441 3.74522C100.491 3.61865 100.663 3.49107 100.806 3.4504C102.01 3.1101 103.22 2.78901 104.428 2.46362C104.969 2.3181 105.119 2.43154 105.117 2.95423C105.101 7.86943 105.083 12.7846 105.077 17.7001C105.076 18.8971 105.448 19.3073 106.672 19.5554C106.753 19.5716 106.859 19.564 106.909 19.6112C107.03 19.7257 107.208 19.8667 107.207 19.9955C107.206 20.119 107.03 20.3146 106.894 20.3522C105.821 20.647 104.727 20.8736 103.663 21.1955C102.567 21.5269 102.529 21.5264 102.599 20.403C102.609 20.2378 102.619 20.0723 102.632 19.8573C102.184 20.1539 101.808 20.4416 101.395 20.6705C98.0955 22.4983 94.0494 20.9199 93.0479 17.3888C92.4978 15.4496 92.5832 13.5337 93.6511 11.7501C94.5877 10.1863 96.0482 9.32105 97.876 9.02093C99.4132 8.76829 100.904 8.92013 102.324 9.57368C102.37 9.59516 102.425 9.59971 102.528 9.62472Z" fill="#262018"/>
<path fill-rule="evenodd" clip-rule="evenodd" d="M17.8397 11.0327C18.6335 10.3255 19.4481 9.74272 20.4041 9.35341C21.518 8.89969 22.6707 8.78701 23.8539 9.02474C25.1482 9.2847 26.0108 10.2684 26.0601 11.6708C26.1239 13.4799 26.1079 15.2915 26.1263 17.1021C26.1329 17.7815 26.1271 18.4608 26.1491 19.1396C26.1686 19.7429 26.4711 20.1089 27.0703 20.2701C27.3615 20.3487 27.6614 20.4076 27.9615 20.4404C28.2516 20.4725 28.3758 20.5935 28.3648 20.878C28.3538 21.1619 28.1771 21.1857 27.9468 21.1854C25.9811 21.1824 24.0157 21.1829 22.05 21.1852C21.821 21.1854 21.6409 21.1634 21.6359 20.8742C21.6314 20.6185 21.7144 20.4624 21.9977 20.447C22.0392 20.4447 22.081 20.4424 22.1219 20.4366C23.2282 20.2737 23.5798 19.9493 23.5924 18.8786C23.616 16.8816 23.5871 14.884 23.5703 12.887C23.5682 12.65 23.5126 12.412 23.4705 12.1766C23.2531 10.9591 22.4176 10.422 21.0895 10.6173C19.9178 10.7899 18.9229 11.3098 18.0256 12.0237C17.9269 12.1023 17.8481 12.2647 17.8476 12.3885C17.8382 14.5728 17.8321 16.7568 17.8481 18.9408C17.8555 19.9041 18.2596 20.2742 19.3564 20.4444C19.5171 20.4695 19.7298 20.5392 19.8033 20.6554C19.9743 20.9265 19.7928 21.1804 19.4499 21.1814C17.4566 21.1857 15.4634 21.1829 13.4701 21.1844C13.2467 21.1844 13.1017 21.1311 13.0978 20.8724C13.0944 20.6362 13.166 20.4924 13.4247 20.4513C13.7508 20.3995 14.0801 20.3525 14.3976 20.2676C14.9077 20.1314 15.2386 19.8182 15.288 19.2884C15.3163 18.9842 15.3381 18.678 15.3384 18.3726C15.3418 14.4839 15.3129 10.5948 15.3589 6.70659C15.3715 5.63114 14.9463 4.92933 13.98 4.47308C13.7941 4.38516 13.5859 4.31569 13.4397 4.18432C13.3294 4.08554 13.2524 3.90087 13.2548 3.7556C13.2564 3.65884 13.406 3.50853 13.5182 3.47695C14.7754 3.12377 16.0369 2.78474 17.3001 2.45101C17.7691 2.32748 17.9303 2.45758 17.9251 2.94061C17.8986 5.49649 17.8684 8.05287 17.8397 10.6087C17.8384 10.75 17.8397 10.8914 17.8397 11.0327Z" fill="#262018"/>
<path fill-rule="evenodd" clip-rule="evenodd" d="M86.7901 15.9072H86.782C86.782 15.095 86.8106 14.2816 86.7759 13.4709C86.6998 11.6853 85.5654 10.4181 83.8489 10.1548C82.1829 9.89916 80.8032 10.7409 80.1229 12.4217C79.619 13.6669 79.6455 14.9452 79.8695 16.2324C80.0192 17.0939 80.3109 17.9071 80.8891 18.5993C82.3837 20.3884 85.0917 20.1661 86.6656 18.6993C86.7555 18.6157 86.783 18.4384 86.7849 18.3037C86.7956 17.5049 86.7901 16.7061 86.7901 15.9072ZM86.8888 19.8493C86.4356 20.1499 86.0554 20.4296 85.6489 20.6678C82.8359 22.3145 78.4476 21.3343 77.3067 17.4003C76.718 15.3696 76.8346 13.3931 78.0178 11.565C78.9741 10.0866 80.4154 9.29865 82.1794 9.00939C84.0813 8.69789 85.8212 9.12307 87.46 10.0442C88.0132 10.3552 88.0713 10.3327 88.3383 9.764C88.4352 9.55836 88.5032 9.32897 88.6468 9.1592C88.7487 9.03895 88.9635 8.93158 89.1119 8.94876C89.214 8.96063 89.3597 9.19305 89.3629 9.32973C89.3739 9.79432 89.3122 10.2599 89.3104 10.725C89.2993 13.0813 89.2812 15.4379 89.3012 17.7939C89.3104 18.9014 89.7318 19.3132 90.9268 19.5595C91.0975 19.5947 91.2976 19.6348 91.4145 19.7424C91.6027 19.9157 91.4423 20.2859 91.1758 20.3576C89.9169 20.6964 88.6579 21.0347 87.3985 21.3722C86.9792 21.4846 86.8088 21.359 86.8064 20.9235C86.8053 20.7512 86.8308 20.5789 86.8445 20.4066C86.8576 20.2409 86.871 20.0754 86.8888 19.8493Z" fill="#262018"/>
<path fill-rule="evenodd" clip-rule="evenodd" d="M47.5129 9.16607H51.4479C51.3944 9.52556 51.3807 9.85474 51.2804 10.1569C51.2468 10.2582 50.9926 10.3436 50.8377 10.3466C49.8969 10.3638 48.9555 10.3555 48.0141 10.3555H47.5129V10.8587C47.5129 13.1357 47.5095 15.4129 47.5158 17.6896C47.5168 18.0612 47.5457 18.4339 47.5864 18.8032C47.6783 19.6356 48.0738 20.0712 48.9208 20.2723C49.2415 20.3483 49.5694 20.4024 49.8971 20.444C50.1702 20.4789 50.2689 20.6045 50.266 20.8685C50.2629 21.1598 50.0893 21.1853 49.8596 21.185C47.631 21.1832 45.4028 21.1835 43.1745 21.1848C42.9618 21.1848 42.7901 21.1534 42.7725 20.8958C42.7552 20.6424 42.8457 20.4908 43.1228 20.4501C43.4085 20.4084 43.6947 20.3609 43.9741 20.2907C44.6969 20.1091 44.9952 19.7592 45.0039 19.0387C45.0191 17.7874 45.0134 16.5356 45.0147 15.2838C45.0157 13.9256 45.016 12.5672 45.0141 11.2091C45.0134 10.6488 44.8387 10.3772 44.2868 10.1849C43.9131 10.0548 43.5203 9.96615 43.1293 9.89365C42.8552 9.84287 42.7552 9.71706 42.7712 9.45836C42.7888 9.17617 42.9755 9.15369 43.2021 9.15546C43.7821 9.1595 44.3619 9.15672 44.9532 9.15672C45.0294 8.57264 45.0743 8.007 45.1801 7.45196C45.8058 4.1723 49.0083 1.81575 52.4778 2.52792C53.1043 2.65651 53.7085 2.89651 54.3135 3.10973C54.6738 3.23681 54.7945 3.55158 54.7748 3.88759C54.741 4.47192 54.5288 5.00169 54.1307 5.45314C53.8787 5.73862 53.6318 5.76767 53.2687 5.56177C52.4523 5.09921 51.6141 4.66518 50.7529 4.28674C50.4328 4.14603 50.0182 4.13441 49.6561 4.16573C48.5881 4.25769 47.974 4.76674 47.704 5.78055C47.4126 6.87546 47.5297 7.99487 47.5129 9.16607Z" fill="#262018"/>
<path fill-rule="evenodd" clip-rule="evenodd" d="M111.288 13.0069C113.13 13.0069 114.939 13.0062 116.747 13.008C116.999 13.0082 117.12 12.9016 117.146 12.6555C117.262 11.5685 116.28 10.3157 115.167 10.1439C113.3 9.85587 111.519 11.1526 111.288 13.0069ZM111.176 14.2014C111.079 16.1717 111.959 18.6113 114.316 19.2869C116.147 19.8116 117.807 19.3952 119.306 18.29C119.4 18.2205 119.654 18.1841 119.674 18.2182C119.75 18.3471 119.766 18.5108 119.787 18.6636C119.793 18.7061 119.74 18.7563 119.714 18.8033C119.259 19.6284 118.57 20.2261 117.742 20.692C115.341 22.0443 111.083 21.6601 109.356 18.5502C108.06 16.2154 108.25 12.9716 109.871 11.0458C110.807 9.93317 112.051 9.30968 113.499 9.05199C115.03 8.7794 116.53 8.83195 117.926 9.5853C119.451 10.4076 120.194 12.098 119.805 13.7499C119.726 14.0869 119.573 14.2085 119.216 14.2069C116.697 14.1963 114.178 14.2014 111.658 14.2014H111.176Z" fill="#262018"/>
<path fill-rule="evenodd" clip-rule="evenodd" d="M32.3847 13.0066C34.2349 13.0066 36.057 13.0051 37.879 13.0081C38.151 13.0084 38.2359 12.851 38.2619 12.6309C38.3866 11.5712 37.3533 10.2931 36.2484 10.1403C34.3746 9.88105 32.6686 11.1235 32.3847 13.0066ZM32.212 14.2013C32.3433 16.0059 32.6912 17.6677 34.3181 18.7646C35.9871 19.8898 38.5394 19.7084 40.2856 18.3887C40.4229 18.2848 40.686 18.1669 40.7913 18.2245C41.0872 18.3856 40.9231 18.6408 40.7994 18.8475C39.9978 20.1877 38.7597 20.9971 37.2236 21.2851C35.2626 21.6524 33.3894 21.3841 31.7889 20.1126C30.664 19.2188 30.0443 18.0289 29.7839 16.6718C29.4793 15.0845 29.5263 13.5121 30.3059 12.04C31.2354 10.2848 32.7954 9.34749 34.7721 9.01933C36.1313 8.79373 37.472 8.85789 38.7453 9.4344C40.4694 10.2153 41.3524 12.0307 40.8987 13.7845C40.8134 14.1149 40.6532 14.2066 40.326 14.2059C37.7937 14.1975 35.2613 14.2013 32.729 14.2013H32.212Z" fill="#262018"/>
<path fill-rule="evenodd" clip-rule="evenodd" d="M0.14391 16.5528C-0.153333 14.8824 -0.0317574 13.2861 0.904085 11.821C2.02216 10.0716 3.70846 9.1866 5.80991 9.04589C7.18925 8.95368 8.54339 9.11056 9.79984 9.72673C10.4644 10.0529 11.0085 10.5109 11.4213 11.1177C11.608 11.3921 11.6408 11.669 11.5069 11.9489C11.2385 12.5102 10.8108 12.9309 10.2236 13.1984C9.91721 13.3381 9.71082 13.2638 9.52912 12.9915C9.20851 12.5115 8.89341 12.0232 8.52185 11.5805C7.92264 10.8669 7.16929 10.357 6.19144 10.2545C4.88956 10.1178 3.80719 10.6774 3.21376 11.9095C2.2443 13.9222 2.40448 15.9362 3.54934 17.8274C4.36255 19.1709 5.744 19.6299 7.30111 19.6135C8.66286 19.5996 9.90566 19.2093 11.0138 18.4309C11.1272 18.3513 11.3144 18.37 11.4675 18.343C11.4809 18.5112 11.566 18.7169 11.4961 18.8419C10.8688 19.9611 9.86444 20.6839 8.64999 21.0974C7.88037 21.3599 7.00098 21.5335 6.2261 21.5335C3.03441 21.5246 0.682203 19.5778 0.14391 16.5528Z" fill="#262018"/>
</svg>
