<svg width="30" height="30" viewBox="0 0 30 30" fill="none" xmlns="http://www.w3.org/2000/svg">
<path d="M7.8125 3.125C6.27031 3.125 5 4.39531 5 5.9375V20.625H4.0625C3.81387 20.625 3.57542 20.7238 3.39961 20.8996C3.22381 21.0754 3.12502 21.3139 3.125 21.5625V22.8125C3.125 25.045 4.95504 26.875 7.1875 26.875H20.9375C23.17 26.875 25 25.045 25 22.8125V5.9375C25 4.39531 23.7297 3.125 22.1875 3.125H7.8125ZM7.8125 5H22.1875C22.7166 5 23.125 5.40844 23.125 5.9375V22.8125C23.125 24.0313 22.1563 25 20.9375 25C19.7187 25 18.75 24.0313 18.75 22.8125V21.5625C18.75 21.3139 18.6512 21.0754 18.4754 20.8996C18.2996 20.7238 18.0611 20.625 17.8125 20.625H6.875V5.9375C6.875 5.40844 7.28344 5 7.8125 5ZM10.3125 8.125C10.0639 8.125 9.8254 8.22377 9.64959 8.39959C9.47377 8.5754 9.375 8.81386 9.375 9.0625C9.375 9.31114 9.47377 9.5496 9.64959 9.72541C9.8254 9.90123 10.0639 10 10.3125 10C10.5611 10 10.7996 9.90123 10.9754 9.72541C11.1512 9.5496 11.25 9.31114 11.25 9.0625C11.25 8.81386 11.1512 8.5754 10.9754 8.39959C10.7996 8.22377 10.5611 8.125 10.3125 8.125ZM13.4375 8.125C13.3133 8.12324 13.1899 8.14619 13.0746 8.19252C12.9594 8.23884 12.8544 8.30762 12.766 8.39485C12.6775 8.48208 12.6072 8.58602 12.5593 8.70064C12.5113 8.81525 12.4866 8.93826 12.4866 9.0625C12.4866 9.18674 12.5113 9.30975 12.5593 9.42436C12.6072 9.53898 12.6775 9.64292 12.766 9.73015C12.8544 9.81738 12.9594 9.88616 13.0746 9.93248C13.1899 9.97881 13.3133 10.0018 13.4375 10H19.6875C19.8117 10.0018 19.9351 9.97881 20.0504 9.93248C20.1656 9.88616 20.2706 9.81738 20.359 9.73015C20.4475 9.64292 20.5178 9.53898 20.5657 9.42436C20.6137 9.30975 20.6384 9.18674 20.6384 9.0625C20.6384 8.93826 20.6137 8.81525 20.5657 8.70064C20.5178 8.58602 20.4475 8.48208 20.359 8.39485C20.2706 8.30762 20.1656 8.23884 20.0504 8.19252C19.9351 8.14619 19.8117 8.12324 19.6875 8.125H13.4375ZM10.3125 11.875C10.0639 11.875 9.8254 11.9738 9.64959 12.1496C9.47377 12.3254 9.375 12.5639 9.375 12.8125C9.375 13.0611 9.47377 13.2996 9.64959 13.4754C9.8254 13.6512 10.0639 13.75 10.3125 13.75C10.5611 13.75 10.7996 13.6512 10.9754 13.4754C11.1512 13.2996 11.25 13.0611 11.25 12.8125C11.25 12.5639 11.1512 12.3254 10.9754 12.1496C10.7996 11.9738 10.5611 11.875 10.3125 11.875ZM13.4375 11.875C13.3133 11.8732 13.1899 11.8962 13.0746 11.9425C12.9594 11.9888 12.8544 12.0576 12.766 12.1449C12.6775 12.2321 12.6072 12.336 12.5593 12.4506C12.5113 12.5653 12.4866 12.6883 12.4866 12.8125C12.4866 12.9367 12.5113 13.0597 12.5593 13.1744C12.6072 13.289 12.6775 13.3929 12.766 13.4801C12.8544 13.5674 12.9594 13.6362 13.0746 13.6825C13.1899 13.7288 13.3133 13.7518 13.4375 13.75H19.6875C19.8117 13.7518 19.9351 13.7288 20.0504 13.6825C20.1656 13.6362 20.2706 13.5674 20.359 13.4801C20.4475 13.3929 20.5178 13.289 20.5657 13.1744C20.6137 13.0597 20.6384 12.9367 20.6384 12.8125C20.6384 12.6883 20.6137 12.5653 20.5657 12.4506C20.5178 12.336 20.4475 12.2321 20.359 12.1449C20.2706 12.0576 20.1656 11.9888 20.0504 11.9425C19.9351 11.8962 19.8117 11.8732 19.6875 11.875H13.4375ZM10.3125 15.625C10.0639 15.625 9.8254 15.7238 9.64959 15.8996C9.47377 16.0754 9.375 16.3139 9.375 16.5625C9.375 16.8111 9.47377 17.0496 9.64959 17.2254C9.8254 17.4012 10.0639 17.5 10.3125 17.5C10.5611 17.5 10.7996 17.4012 10.9754 17.2254C11.1512 17.0496 11.25 16.8111 11.25 16.5625C11.25 16.3139 11.1512 16.0754 10.9754 15.8996C10.7996 15.7238 10.5611 15.625 10.3125 15.625ZM13.4375 15.625C13.3133 15.6232 13.1899 15.6462 13.0746 15.6925C12.9594 15.7388 12.8544 15.8076 12.766 15.8949C12.6775 15.9821 12.6072 16.086 12.5593 16.2006C12.5113 16.3153 12.4866 16.4383 12.4866 16.5625C12.4866 16.6867 12.5113 16.8097 12.5593 16.9244C12.6072 17.039 12.6775 17.1429 12.766 17.2301C12.8544 17.3174 12.9594 17.3862 13.0746 17.4325C13.1899 17.4788 13.3133 17.5018 13.4375 17.5H19.6875C19.8117 17.5018 19.9351 17.4788 20.0504 17.4325C20.1656 17.3862 20.2706 17.3174 20.359 17.2301C20.4475 17.1429 20.5178 17.039 20.5657 16.9244C20.6137 16.8097 20.6384 16.6867 20.6384 16.5625C20.6384 16.4383 20.6137 16.3153 20.5657 16.2006C20.5178 16.086 20.4475 15.9821 20.359 15.8949C20.2706 15.8076 20.1656 15.7388 20.0504 15.6925C19.9351 15.6462 19.8117 15.6232 19.6875 15.625H13.4375ZM5 22.5H16.875V22.8125C16.875 23.6344 17.1838 24.3584 17.6086 25H7.1875C5.96871 25 5 24.0313 5 22.8125V22.5Z" fill="#262018"/>
</svg>
