<svg width="24" height="24" viewBox="0 0 24 24" fill="none" xmlns="http://www.w3.org/2000/svg">
<path d="M17.2687 6.48273C17.4635 6.48841 17.6484 6.56966 17.7843 6.7093L22.7843 11.7093C22.9249 11.85 23.0039 12.0407 23.0039 12.2396C23.0039 12.4384 22.9249 12.6292 22.7843 12.7698L17.7843 17.7698C17.7152 17.8418 17.6324 17.8993 17.5408 17.9389C17.4492 17.9785 17.3507 17.9994 17.2509 18.0004C17.1511 18.0014 17.0521 17.9825 16.9598 17.9448C16.8674 17.9071 16.7834 17.8513 16.7129 17.7807C16.6423 17.7102 16.5866 17.6262 16.5488 17.5339C16.5111 17.4415 16.4922 17.3425 16.4932 17.2427C16.4942 17.1429 16.5152 17.0444 16.5547 16.9528C16.5943 16.8612 16.6518 16.7784 16.7238 16.7093L20.4435 12.9896H1.75405C1.65467 12.991 1.55599 12.9726 1.46377 12.9356C1.37154 12.8985 1.2876 12.8435 1.21683 12.7737C1.14605 12.7039 1.08985 12.6208 1.05149 12.5291C1.01312 12.4374 0.99337 12.339 0.99337 12.2396C0.99337 12.1402 1.01312 12.0418 1.05149 11.9501C1.08985 11.8584 1.14605 11.7752 1.21683 11.7054C1.2876 11.6357 1.37154 11.5806 1.46377 11.5436C1.55599 11.5065 1.65467 11.4882 1.75405 11.4896H20.4435L16.7238 7.76984C16.6156 7.66446 16.5417 7.52888 16.5118 7.38082C16.482 7.23277 16.4975 7.07915 16.5564 6.94007C16.6153 6.80098 16.7148 6.68291 16.8419 6.60132C16.969 6.51972 17.1177 6.47838 17.2687 6.48273Z" fill="#262018"/>
</svg>
