<svg width="26" height="23" viewBox="0 0 26 23" fill="none" xmlns="http://www.w3.org/2000/svg">
<path d="M7.375 0.375C3.58903 0.375 0.5 3.46403 0.5 7.25C0.5 9.8101 2.42978 12.2206 4.78223 14.6926C7.13468 17.1647 10.0302 19.6684 12.3372 21.9753C12.513 22.1511 12.7514 22.2498 13 22.2498C13.2486 22.2498 13.487 22.1511 13.6628 21.9753C15.9698 19.6684 18.8653 17.1647 21.2178 14.6926C23.5702 12.2206 25.5 9.8101 25.5 7.25C25.5 3.46403 22.411 0.375 18.625 0.375C16.4522 0.375 14.5605 1.54156 13 3.52319C11.4395 1.54156 9.54777 0.375 7.375 0.375ZM7.375 2.25C9.20536 2.25 10.7289 3.224 12.2078 5.56299C12.2923 5.69659 12.4093 5.80664 12.5478 5.8829C12.6863 5.95915 12.8419 5.99914 13 5.99914C13.1581 5.99914 13.3137 5.95915 13.4522 5.8829C13.5907 5.80664 13.7077 5.69659 13.7922 5.56299C15.2711 3.224 16.7946 2.25 18.625 2.25C21.3978 2.25 23.625 4.47722 23.625 7.25C23.625 8.7524 22.1173 11.0294 19.8604 13.4011C17.8022 15.5639 15.2439 17.8234 13 20.0112C10.7561 17.8234 8.19776 15.5639 6.13965 13.4011C3.88272 11.0294 2.375 8.7524 2.375 7.25C2.375 4.47722 4.60222 2.25 7.375 2.25Z" fill="#999793"/>
</svg>
