<svg width="34" height="30" viewBox="0 0 34 30" fill="none" xmlns="http://www.w3.org/2000/svg">
<path d="M9.4987 0.833008C4.45073 0.833008 0.332031 4.95171 0.332031 9.99967C0.332031 13.4131 2.90507 16.6271 6.04167 19.9232C9.17826 23.2193 13.039 26.5576 16.1149 29.6335C16.3493 29.8678 16.6672 29.9994 16.9987 29.9994C17.3302 29.9994 17.6481 29.8678 17.8825 29.6335C20.9584 26.5576 24.8191 23.2193 27.9557 19.9232C31.0923 16.6271 33.6654 13.4131 33.6654 9.99967C33.6654 4.95171 29.5467 0.833008 24.4987 0.833008C21.6017 0.833008 19.0794 2.38842 16.9987 5.0306C14.918 2.38842 12.3957 0.833008 9.4987 0.833008ZM9.4987 3.33301C11.9392 3.33301 13.9706 4.63167 15.9424 7.75033C16.0551 7.92846 16.2111 8.07519 16.3958 8.17687C16.5805 8.27854 16.7879 8.33186 16.9987 8.33186C17.2095 8.33186 17.4169 8.27854 17.6016 8.17687C17.7863 8.07519 17.9423 7.92846 18.055 7.75033C20.0268 4.63167 22.0582 3.33301 24.4987 3.33301C28.1957 3.33301 31.1654 6.30264 31.1654 9.99967C31.1654 12.0029 29.1551 15.0389 26.1458 18.2012C23.4017 21.0849 19.9906 24.0976 16.9987 27.0147C14.0068 24.0976 10.5957 21.0849 7.85156 18.2012C4.84233 15.0389 2.83203 12.0029 2.83203 9.99967C2.83203 6.30264 5.80166 3.33301 9.4987 3.33301Z" fill="white"/>
</svg>
