<svg width="151" height="30" viewBox="0 0 151 30" fill="none" xmlns="http://www.w3.org/2000/svg">
<path d="M12.6532 8.40838C13.9198 6.13613 14.5531 5 15.5 5C16.4469 5 17.0802 6.13612 18.3468 8.40837L18.6745 8.99623C19.0345 9.64193 19.2144 9.96479 19.4951 10.1778C19.7757 10.3908 20.1251 10.4699 20.8241 10.628L21.4605 10.772C23.9201 11.3286 25.15 11.6068 25.4426 12.5477C25.7352 13.4886 24.8968 14.4691 23.2199 16.4299L22.7861 16.9372C22.3096 17.4944 22.0713 17.773 21.9641 18.1177C21.857 18.4624 21.893 18.8341 21.965 19.5776L22.0306 20.2544C22.2841 22.8706 22.4109 24.1787 21.6449 24.7602C20.8788 25.3417 19.7273 24.8115 17.4243 23.7512L16.8285 23.4768C16.1741 23.1755 15.8469 23.0248 15.5 23.0248C15.1531 23.0248 14.8259 23.1755 14.1715 23.4768L13.5757 23.7512C11.2727 24.8115 10.1212 25.3417 9.35515 24.7602C8.58912 24.1787 8.71588 22.8706 8.9694 20.2544L9.03498 19.5776C9.10703 18.8341 9.14305 18.4624 9.03586 18.1177C8.92868 17.773 8.69043 17.4944 8.21392 16.9372L7.7801 16.4299C6.10325 14.4691 5.26482 13.4886 5.55742 12.5477C5.85002 11.6068 7.07986 11.3286 9.53954 10.772L10.1759 10.628C10.8749 10.4699 11.2243 10.3908 11.5049 10.1778C11.7856 9.96479 11.9655 9.64194 12.3255 8.99623L12.6532 8.40838Z" fill="#B98739"/>
<path d="M42.6532 8.40838C43.9198 6.13613 44.5531 5 45.5 5C46.4469 5 47.0802 6.13612 48.3468 8.40837L48.6745 8.99623C49.0345 9.64193 49.2144 9.96479 49.4951 10.1778C49.7757 10.3908 50.1251 10.4699 50.8241 10.628L51.4605 10.772C53.9201 11.3286 55.15 11.6068 55.4426 12.5477C55.7352 13.4886 54.8968 14.4691 53.2199 16.4299L52.7861 16.9372C52.3096 17.4944 52.0713 17.773 51.9641 18.1177C51.857 18.4624 51.893 18.8341 51.965 19.5776L52.0306 20.2544C52.2841 22.8706 52.4109 24.1787 51.6449 24.7602C50.8788 25.3417 49.7273 24.8115 47.4243 23.7512L46.8285 23.4768C46.1741 23.1755 45.8469 23.0248 45.5 23.0248C45.1531 23.0248 44.8259 23.1755 44.1715 23.4768L43.5757 23.7512C41.2727 24.8115 40.1212 25.3417 39.3551 24.7602C38.5891 24.1787 38.7159 22.8706 38.9694 20.2544L39.035 19.5776C39.107 18.8341 39.143 18.4624 39.0359 18.1177C38.9287 17.773 38.6904 17.4944 38.2139 16.9372L37.7801 16.4299C36.1032 14.4691 35.2648 13.4886 35.5574 12.5477C35.85 11.6068 37.0799 11.3286 39.5395 10.772L40.1759 10.628C40.8749 10.4699 41.2243 10.3908 41.5049 10.1778C41.7856 9.96479 41.9655 9.64194 42.3255 8.99623L42.6532 8.40838Z" fill="#B98739"/>
<path d="M72.6532 8.40838C73.9198 6.13613 74.5531 5 75.5 5C76.4469 5 77.0802 6.13612 78.3468 8.40837L78.6745 8.99623C79.0345 9.64193 79.2144 9.96479 79.4951 10.1778C79.7757 10.3908 80.1251 10.4699 80.8241 10.628L81.4605 10.772C83.9201 11.3286 85.15 11.6068 85.4426 12.5477C85.7352 13.4886 84.8968 14.4691 83.2199 16.4299L82.7861 16.9372C82.3096 17.4944 82.0713 17.773 81.9641 18.1177C81.857 18.4624 81.893 18.8341 81.965 19.5776L82.0306 20.2544C82.2841 22.8706 82.4109 24.1787 81.6449 24.7602C80.8788 25.3417 79.7273 24.8115 77.4243 23.7512L76.8285 23.4768C76.1741 23.1755 75.8469 23.0248 75.5 23.0248C75.1531 23.0248 74.8259 23.1755 74.1715 23.4768L73.5757 23.7512C71.2727 24.8115 70.1212 25.3417 69.3551 24.7602C68.5891 24.1787 68.7159 22.8706 68.9694 20.2544L69.035 19.5776C69.107 18.8341 69.143 18.4624 69.0359 18.1177C68.9287 17.773 68.6904 17.4944 68.2139 16.9372L67.7801 16.4299C66.1032 14.4691 65.2648 13.4886 65.5574 12.5477C65.85 11.6068 67.0799 11.3286 69.5395 10.772L70.1759 10.628C70.8749 10.4699 71.2243 10.3908 71.5049 10.1778C71.7856 9.96479 71.9655 9.64194 72.3255 8.99623L72.6532 8.40838Z" fill="#B98739"/>
<path d="M102.653 8.40838C103.92 6.13613 104.553 5 105.5 5C106.447 5 107.08 6.13612 108.347 8.40837L108.675 8.99623C109.034 9.64193 109.214 9.96479 109.495 10.1778C109.776 10.3908 110.125 10.4699 110.824 10.628L111.46 10.772C113.92 11.3286 115.15 11.6068 115.443 12.5477C115.735 13.4886 114.897 14.4691 113.22 16.4299L112.786 16.9372C112.31 17.4944 112.071 17.773 111.964 18.1177C111.857 18.4624 111.893 18.8341 111.965 19.5776L112.031 20.2544C112.284 22.8706 112.411 24.1787 111.645 24.7602C110.879 25.3417 109.727 24.8115 107.424 23.7512L106.829 23.4768C106.174 23.1755 105.847 23.0248 105.5 23.0248C105.153 23.0248 104.826 23.1755 104.171 23.4768L103.576 23.7512C101.273 24.8115 100.121 25.3417 99.3551 24.7602C98.5891 24.1787 98.7159 22.8706 98.9694 20.2544L99.035 19.5776C99.107 18.8341 99.143 18.4624 99.0359 18.1177C98.9287 17.773 98.6904 17.4944 98.2139 16.9372L97.7801 16.4299C96.1032 14.4691 95.2648 13.4886 95.5574 12.5477C95.85 11.6068 97.0799 11.3286 99.5395 10.772L100.176 10.628C100.875 10.4699 101.224 10.3908 101.505 10.1778C101.786 9.96479 101.966 9.64194 102.325 8.99623L102.653 8.40838Z" fill="#B98739"/>
<path d="M132.653 8.40838C133.92 6.13613 134.553 5 135.5 5C136.447 5 137.08 6.13612 138.347 8.40837L138.675 8.99623C139.034 9.64193 139.214 9.96479 139.495 10.1778C139.776 10.3908 140.125 10.4699 140.824 10.628L141.46 10.772C143.92 11.3286 145.15 11.6068 145.443 12.5477C145.735 13.4886 144.897 14.4691 143.22 16.4299L142.786 16.9372C142.31 17.4944 142.071 17.773 141.964 18.1177C141.857 18.4624 141.893 18.8341 141.965 19.5776L142.031 20.2544C142.284 22.8706 142.411 24.1787 141.645 24.7602C140.879 25.3417 139.727 24.8115 137.424 23.7512L136.829 23.4768C136.174 23.1755 135.847 23.0248 135.5 23.0248C135.153 23.0248 134.826 23.1755 134.171 23.4768L133.576 23.7512C131.273 24.8115 130.121 25.3417 129.355 24.7602C128.589 24.1787 128.716 22.8706 128.969 20.2544L129.035 19.5776C129.107 18.8341 129.143 18.4624 129.036 18.1177C128.929 17.773 128.69 17.4944 128.214 16.9372L127.78 16.4299C126.103 14.4691 125.265 13.4886 125.557 12.5477C125.85 11.6068 127.08 11.3286 129.54 10.772L130.176 10.628C130.875 10.4699 131.224 10.3908 131.505 10.1778C131.786 9.96479 131.966 9.64194 132.325 8.99623L132.653 8.40838Z" fill="#B98739"/>
</svg>
